<svg width="60" height="55" fill="none" xmlns="http://www.w3.org/2000/svg"><path d="M55.994 7.161a4.54 4.54 0 0 0-4.099 4.74l.181 7.422a5.699 5.699 0 0 0-4.58 3.218l-2.712 5.695a6.525 6.525 0 0 1-1.8 2.273l-.563.452a11.45 11.45 0 0 0-4.296 9.474l-1.109-.527a1.007 1.007 0 0 0-1.343.476L32.7 46.628a1.008 1.008 0 0 0 .476 1.343l13.704 6.527a1.005 1.005 0 0 0 1.342-.477l2.974-6.245a1.007 1.007 0 0 0-.476-1.342l-.585-.279-.146-1.953a2.95 2.95 0 0 1 .67-2.108l7.097-8.588c.015-.017.028-.035.042-.053a11.775 11.775 0 0 0 2.201-7.011 1.066 1.066 0 0 0-.013-.143l-2.9-18.293a1.008 1.008 0 0 0-1.092-.845Zm-9.157 45.084-11.885-5.66 2.108-4.425 11.884 5.66-2.107 4.425Zm9.344-19.996-7.074 8.561a4.956 4.956 0 0 0-1.127 3.542l.06.805-7.79-3.71a9.448 9.448 0 0 1 3.431-8.914l.564-.453a8.552 8.552 0 0 0 2.359-2.978l2.712-5.695a3.69 3.69 0 0 1 3.938-2.047l-3.965 8.324a1.007 1.007 0 0 0 1.82.867l4.457-9.361a1.008 1.008 0 0 0-.476-1.343 5.75 5.75 0 0 0-.994-.364l-.187-7.644v-.026a2.527 2.527 0 0 1 1.364-2.377l2.712 17.106a9.749 9.749 0 0 1-1.804 5.707ZM2.244 33.506l7.096 8.588a2.95 2.95 0 0 1 .67 2.108l-.145 1.953-.585.279c-.503.239-.716.84-.476 1.342l2.974 6.245a1.006 1.006 0 0 0 1.343.477l13.703-6.527c.502-.239.715-.84.476-1.343l-2.974-6.244a1.007 1.007 0 0 0-1.342-.477l-1.109.528a11.451 11.451 0 0 0-4.296-9.475l-.564-.452a6.523 6.523 0 0 1-1.8-2.272l-2.712-5.695a5.699 5.699 0 0 0-4.58-3.218l.181-7.422a4.54 4.54 0 0 0-4.098-4.74 1.008 1.008 0 0 0-1.093.845L.013 26.3a.991.991 0 0 0-.012.143 11.774 11.774 0 0 0 2.243 7.064Zm22.804 13.08-11.885 5.659-2.107-4.425 11.884-5.66 2.108 4.425ZM4.727 9.435a2.528 2.528 0 0 1 1.365 2.377l-.001.026-.187 7.644c-.342.09-.675.212-.994.364-.502.239-.716.84-.476 1.343l4.458 9.361a1.007 1.007 0 0 0 1.819-.866L6.746 21.36a3.688 3.688 0 0 1 3.938 2.047l2.713 5.695a8.55 8.55 0 0 0 2.358 2.979l.564.452a9.448 9.448 0 0 1 3.43 8.915l-7.79 3.71.061-.806a4.958 4.958 0 0 0-1.126-3.542l-7.075-8.56a9.748 9.748 0 0 1-1.804-5.708L4.727 9.436ZM42.015 21.708c.418-.133.702-.52.705-.96V4.782a1.012 1.012 0 0 0-.705-.959L30.313.05a1.012 1.012 0 0 0-.62 0L17.986 3.822c-.418.133-.703.52-.706.959v15.968c.003.439.287.825.705.96l11.702 3.772a1.025 1.025 0 0 0 .624 0l11.703-3.773ZM31.008 23.14V9.287l9.697-3.124v13.853l-9.697 3.123ZM30 2.066l8.418 2.715L30 7.495l-8.417-2.714L30 2.066ZM19.296 6.164l9.697 3.123V23.14l-9.697-3.124V6.164Z" fill="#000"/></svg>