<svg width="14" height="13" fill="none" xmlns="http://www.w3.org/2000/svg"><path d="M6.854 0c1.767 0 1.987.006 2.68.039.692.032 1.163.141 1.578.302.429.165.79.389 1.152.75.33.325.586.718.75 1.152.16.414.269.885.302 1.578.03.693.038.913.038 2.679 0 1.766-.006 1.986-.038 2.68-.033.692-.142 1.163-.303 1.578a3.174 3.174 0 0 1-.75 1.151c-.324.33-.717.586-1.151.75-.414.16-.886.27-1.578.302-.693.03-.913.039-2.68.039-1.766 0-1.986-.007-2.679-.039-.692-.033-1.163-.142-1.578-.302a3.178 3.178 0 0 1-1.152-.75 3.187 3.187 0 0 1-.75-1.152c-.16-.414-.269-.885-.302-1.578C.363 8.486.354 8.266.354 6.5c0-1.766.007-1.986.04-2.68.032-.692.14-1.163.302-1.577.162-.435.418-.828.75-1.152C1.77.76 2.162.504 2.596.34 3.012.18 3.482.071 4.175.04 4.868.009 5.088 0 6.855 0Zm0 3.25a3.25 3.25 0 1 0 0 6.5 3.25 3.25 0 0 0 0-6.5Zm4.225-.163a.812.812 0 1 0-1.624 0 .812.812 0 0 0 1.624 0ZM6.854 4.55a1.95 1.95 0 1 1 0 3.9 1.95 1.95 0 0 1 0-3.9Z" fill="#CCC"/></svg>