<svg width="60" height="60" fill="none" xmlns="http://www.w3.org/2000/svg"><path d="M22.265 37.907a1.176 1.176 0 0 0 1.171-1.172c0-.308-.125-.61-.343-.828a1.18 1.18 0 0 0-.828-.343c-.309 0-.61.125-.829.343-.218.218-.343.52-.343.828 0 .31.125.61.343.829.218.219.52.343.829.343Z" fill="#000"/><path d="M50.136 27.777V22.98h1.543a2.229 2.229 0 0 0 2.226-2.227v-9.152a2.229 2.229 0 0 0-2.226-2.226h-7.306a8.155 8.155 0 0 0 2.456-5.837 1.172 1.172 0 0 0-2.343 0 5.84 5.84 0 0 1-3 5.099 5.824 5.824 0 0 0 .7-2.778C42.187 2.63 39.559 0 36.329 0a5.869 5.869 0 0 0-5.614 4.183 5.832 5.832 0 0 0-3.761-1.37c-1.431 0-2.743.516-3.761 1.37A5.869 5.869 0 0 0 17.578 0a5.866 5.866 0 0 0-5.86 5.86c0 1.004.255 1.95.702 2.777a5.84 5.84 0 0 1-3-5.1 1.172 1.172 0 1 0-2.344.001c0 2.284.942 4.351 2.456 5.837H2.227A2.229 2.229 0 0 0 0 11.6v9.152c0 1.228.999 2.227 2.227 2.227H3.77v28.816a3.52 3.52 0 0 0 3.515 3.516h24.18a16.816 16.816 0 0 0 11.66 4.687C52.43 59.999 60 52.429 60 43.124c0-6.805-4.05-12.68-9.864-15.347ZM32.811 8.672V5.859a3.52 3.52 0 0 1 3.516-3.515 3.52 3.52 0 0 1 3.515 3.515 3.52 3.52 0 0 1-3.515 3.516h-3.516v-.703Zm0 3.047h18.75v8.917h-18.75V11.72Zm0 11.261h14.98v3.926a16.83 16.83 0 0 0-4.667-.656c-3.88 0-7.46 1.317-10.313 3.528V22.98ZM23.437 8.672a3.52 3.52 0 0 1 3.516-3.516 3.52 3.52 0 0 1 3.515 3.516v.703h-7.03v-.703Zm0 3.047h7.031v8.917h-7.03V11.72Zm-5.86-9.375a3.52 3.52 0 0 1 3.516 3.515v3.516h-3.515a3.52 3.52 0 0 1-3.516-3.516 3.52 3.52 0 0 1 3.516-3.515ZM2.345 20.636V11.72h18.75v8.917H2.343Zm21.093 32.332V42.009a1.172 1.172 0 1 0-2.344 0v10.959H7.285a1.173 1.173 0 0 1-1.171-1.172V22.98h14.98v8.482a1.172 1.172 0 0 0 2.343 0V22.98h7.031v8.997a16.804 16.804 0 0 0-4.218 11.147c0 3.671 1.18 7.071 3.177 9.844h-5.99Zm19.688 4.687c-8.012 0-14.53-6.518-14.53-14.53 0-8.013 6.518-14.532 14.53-14.532 8.013 0 14.531 6.519 14.531 14.531 0 8.013-6.518 14.531-14.53 14.531Z" fill="#000"/><path d="M46.947 35.412a1.172 1.172 0 0 0-1.567.542l-6.448 13.278a1.172 1.172 0 1 0 2.109 1.024l6.448-13.278a1.172 1.172 0 0 0-.542-1.566ZM40.164 34.754a3.726 3.726 0 0 0-2.652-1.099c-1.002 0-1.944.39-2.653 1.099a3.755 3.755 0 0 0 0 5.304 3.738 3.738 0 0 0 2.653 1.097 3.74 3.74 0 0 0 2.652-1.097 3.755 3.755 0 0 0 0-5.304ZM38.506 38.4a1.409 1.409 0 0 1-1.99 0 1.409 1.409 0 0 1 .996-2.402 1.409 1.409 0 0 1 .995 2.402ZM46.296 46.19a3.755 3.755 0 0 0 0 5.305 3.727 3.727 0 0 0 2.652 1.098c1.002 0 1.944-.39 2.652-1.098a3.755 3.755 0 0 0 0-5.304 3.755 3.755 0 0 0-5.304 0Zm3.647 3.648a1.397 1.397 0 0 1-.995.411 1.408 1.408 0 0 1 0-2.813 1.409 1.409 0 0 1 .995 2.401Z" fill="#000"/></svg>