<svg width="60" height="60" fill="none" xmlns="http://www.w3.org/2000/svg"><path d="M51.181 32.89v-4.765h1.553c.647 0 1.172-.525 1.172-1.172v-7.031c0-.127-.02-.253-.06-.373L47.556.8C47.397.322 46.95 0 46.446 0H7.46c-.503 0-.95.322-1.11.8L.06 19.55c-.04.12-.06.245-.06.372v7.031c0 .647.525 1.172 1.172 1.172h1.553v19.922c0 .647.524 1.172 1.172 1.172h28.365C33.744 55.395 39.312 60 45.937 60 53.692 60 60 53.692 60 45.938c0-5.902-3.654-10.965-8.819-13.048Zm-17.24-7.109v-4.687h17.621v4.687H33.941Zm-11.632 2.344h9.288v4.535c0 .194-.06.307-.097.332-.007.005-.039.003-.086-.017l-4.02-1.633a1.173 1.173 0 0 0-.882 0l-4.02 1.633c-.047.02-.079.021-.086.017-.037-.025-.097-.138-.097-.332v-4.535Zm0-2.344v-4.687h9.288v4.687H22.31Zm7.955-23.437 1.241 16.406h-9.104l1.241-16.406h6.622ZM51.105 18.75h-17.25l-1.24-16.406h12.988l5.502 16.406ZM8.303 2.344h12.989L20.05 18.75H2.8L8.303 2.344ZM2.343 25.78v-4.687h17.622v4.687H2.344ZM5.07 46.875V44.53h5.272a1.172 1.172 0 0 0 0-2.344H5.07V28.125h14.896v4.535c0 .962.413 1.792 1.132 2.276.67.45 1.5.527 2.278.21l3.578-1.454 3.578 1.455c.317.128.642.192.961.192.466 0 .92-.136 1.317-.403.719-.484 1.132-1.314 1.132-2.276v-4.535h14.896v4.051a14.064 14.064 0 0 0-2.9-.3c-7.754 0-14.062 6.308-14.062 14.062 0 .315.011.627.032.937H5.069Zm40.868 10.781c-6.461 0-11.718-5.257-11.718-11.718 0-6.462 5.257-11.72 11.718-11.72 6.462 0 11.72 5.258 11.72 11.72 0 6.461-5.258 11.718-11.72 11.718Z" fill="#000"/><path d="M15.614 42.187a1.172 1.172 0 1 0 0 2.344h.001a1.172 1.172 0 1 0 0-2.344ZM48.97 41.25h-5.58l.344-.343a1.172 1.172 0 0 0-1.658-1.657l-2.343 2.343a1.172 1.172 0 0 0 0 1.658l2.343 2.343a1.168 1.168 0 0 0 1.658 0c.457-.457.457-1.2 0-1.657l-.344-.343h5.58a2.346 2.346 0 0 1 2.343 2.343 2.346 2.346 0 0 1-2.344 2.344h-9.58a1.172 1.172 0 0 0 0 2.344h9.58a4.693 4.693 0 0 0 4.688-4.688 4.693 4.693 0 0 0-4.688-4.687Z" fill="#000"/></svg>