<svg width="60" height="41" fill="none" xmlns="http://www.w3.org/2000/svg"><path d="M49.053 29.832a5.547 5.547 0 0 0-3.91 1.609c-1.05 1.048-1.637 2.413-1.637 3.875 0 1.462.575 2.827 1.638 3.875a5.57 5.57 0 0 0 3.91 1.609c3.005 0 5.448-2.462 5.448-5.484s-2.443-5.484-5.449-5.484Zm0 8.53c-1.686 0-3.103-1.389-3.103-3.046 0-1.657 1.417-3.047 3.103-3.047 1.662 0 3.006 1.365 3.006 3.047 0 1.682-1.344 3.047-3.006 3.047Zm1.417-26.797a1.188 1.188 0 0 0-.818-.317h-6.268c-.672 0-1.221.548-1.221 1.219v9.992c0 .67.55 1.22 1.221 1.22h9.945c.672 0 1.222-.55 1.222-1.22v-6.69c0-.341-.147-.67-.403-.902l-3.678-3.302Zm1.638 9.676h-7.502v-7.568h4.57l2.931 2.632v4.936Zm-32.89 8.591a5.547 5.547 0 0 0-3.91 1.609c-1.05 1.048-1.637 2.413-1.637 3.875 0 1.462.575 2.827 1.638 3.875a5.57 5.57 0 0 0 3.91 1.609c3.005 0 5.448-2.462 5.448-5.484s-2.443-5.484-5.449-5.484Zm0 8.53c-1.686 0-3.103-1.389-3.103-3.046 0-1.657 1.417-3.047 3.103-3.047 1.662 0 3.006 1.365 3.006 3.047 0 1.682-1.344 3.047-3.006 3.047Zm-8.149-7.03H8.613V28.09c0-.67-.55-1.219-1.221-1.219-.672 0-1.222.548-1.222 1.219v4.46c0 .67.55 1.219 1.222 1.219h3.677c.672 0 1.222-.549 1.222-1.22 0-.67-.55-1.218-1.222-1.218Zm6.194-6.642c0-.67-.55-1.219-1.222-1.219H1.221C.55 23.471 0 24.019 0 24.69c0 .67.55 1.218 1.222 1.218h14.82c.671 0 1.221-.536 1.221-1.218Zm-13.561-4.4 14.82.086c.672 0 1.221-.537 1.234-1.207a1.208 1.208 0 0 0-1.21-1.23l-14.82-.086h-.012c-.672 0-1.222.536-1.222 1.206a1.208 1.208 0 0 0 1.21 1.231Zm2.492-5.532h14.82c.672 0 1.222-.549 1.222-1.219s-.55-1.219-1.222-1.219H6.194c-.672 0-1.221.549-1.221 1.22 0 .67.55 1.218 1.221 1.218Zm53.354-1.645L50.8 5.886a1.205 1.205 0 0 0-.782-.28H39.731V1.219c0-.67-.55-1.219-1.221-1.219H7.392C6.72 0 6.17.548 6.17 1.219v8.92c0 .67.55 1.219 1.222 1.219.672 0 1.221-.549 1.221-1.219V2.437H37.3v28.894H27.282c-.672 0-1.222.549-1.222 1.219s.55 1.219 1.222 1.219h14.917c.672 0 1.222-.549 1.222-1.22 0-.67-.55-1.218-1.222-1.218h-2.456V8.043h9.848l7.965 6.58-.085 16.684h-1.27c-.673 0-1.222.548-1.222 1.218 0 .67.55 1.22 1.221 1.22h2.48c.672 0 1.222-.537 1.222-1.207L60 14.063a1.286 1.286 0 0 0-.452-.95Z" fill="#000"/></svg>