<svg width="15" height="11" fill="none" xmlns="http://www.w3.org/2000/svg"><path d="M14.354 1.306a5.564 5.564 0 0 1-1.595.437A2.785 2.785 0 0 0 13.981.207c-.545.324-1.141.55-1.763.673a2.775 2.775 0 0 0-4.73 2.532 7.881 7.881 0 0 1-5.721-2.9 2.775 2.775 0 0 0 .859 3.706 2.766 2.766 0 0 1-1.257-.348v.035a2.778 2.778 0 0 0 2.227 2.722c-.41.11-.839.127-1.255.048a2.778 2.778 0 0 0 2.593 1.928 5.571 5.571 0 0 1-4.109 1.15A7.852 7.852 0 0 0 5.08 11c5.105 0 7.898-4.23 7.898-7.898 0-.12-.004-.24-.009-.359a5.639 5.639 0 0 0 1.385-1.437Z" fill="#76A713"/></svg>